<?xml version="1.0" encoding="UTF-8"?>
<svg width="24px" height="24px" viewBox="0 0 24 24" version="1.1" xmlns="http://www.w3.org/2000/svg">
    <g stroke="none" stroke-width="1" fill="none" fill-rule="evenodd">
        <path d="M4.5,5 L21.5,5 L19.5,15 L6.5,15 L4.5,5 Z M7,17 C5.8954305,17 5,17.8954305 5,19 C5,20.1045695 5.8954305,21 7,21 C8.1045695,21 9,20.1045695 9,19 C9,17.8954305 8.1045695,17 7,17 Z M17,17 C15.8954305,17 15,17.8954695 15,19 C15,20.1045695 15.8954305,21 17,21 C18.1045695,21 19,20.1045695 19,19 C19,17.8954305 18.1045695,17 17,17 Z" fill="#000000"/>
    </g>
</svg>